<?xml version="1.0" encoding="utf-8"?>
<!-- Generator: Adobe Illustrator 15.0.0, SVG Export Plug-In . SVG Version: 6.00 Build 0)  -->
<!DOCTYPE svg PUBLIC "-//W3C//DTD SVG 1.1//EN" "http://www.w3.org/Graphics/SVG/1.1/DTD/svg11.dtd">
<svg version="1.1" xmlns="http://www.w3.org/2000/svg" xmlns:xlink="http://www.w3.org/1999/xlink" x="0px" y="0px" width="67px"
	 height="57px" viewBox="0 0 67 57" enable-background="new 0 0 67 57" xml:space="preserve">
<g id="DO_NOT_EDIT_-_BOUNDING_BOX">
	<rect id="BOUNDING_BOX" fill="none" width="67" height="57"/>
</g>
<g id="PLACE_YOUR_GRAPHIC_HERE">
	<path opacity="0.3" d="M30.861,12.347l-8.468,7.41h-8.352c-1.947,0-3.542,1.595-3.542,3.542v12.398
		c0,1.947,1.595,3.542,3.542,3.542h8.352l8.468,7.41c1.464,1.283,2.664,0.737,2.664-1.211V13.558
		C33.525,11.61,32.325,11.067,30.861,12.347z M43.039,15.118c-0.595-1.069-1.947-1.449-3.014-0.851
		c-1.068,0.595-1.449,1.944-0.851,3.01c2.086,3.733,3.187,7.96,3.187,12.223c0,4.264-1.101,8.491-3.187,12.221
		c-0.599,1.065-0.218,2.415,0.851,3.014c0.343,0.189,0.713,0.28,1.08,0.28c0.774,0,1.528-0.409,1.934-1.132
		c2.453-4.39,3.75-9.364,3.75-14.383C46.789,24.479,45.492,19.508,43.039,15.118z M50.023,7.912
		c-0.675-1.021-2.048-1.301-3.068-0.629c-1.021,0.671-1.305,2.044-0.63,3.065c3.761,5.708,5.746,12.33,5.746,19.152
		c0,6.82-1.985,13.445-5.746,19.15c-0.675,1.021-0.391,2.394,0.63,3.068c0.377,0.245,0.799,0.363,1.218,0.363
		c0.72,0,1.425-0.35,1.851-0.996C54.262,44.654,56.5,37.192,56.5,29.5C56.5,21.809,54.262,14.343,50.023,7.912z"/>
	<path opacity="0.15" d="M48.173,52.082c-0.625,0-1.234-0.182-1.763-0.525c-0.723-0.478-1.212-1.201-1.385-2.041
		c-0.174-0.842-0.008-1.7,0.466-2.417c3.65-5.537,5.58-11.97,5.58-18.599c0-6.627-1.93-13.06-5.581-18.602
		c-0.473-0.715-0.639-1.572-0.466-2.414c0.173-0.842,0.663-1.565,1.381-2.037c0.527-0.347,1.138-0.53,1.767-0.53
		c1.084,0,2.088,0.54,2.686,1.443C55.203,12.955,57.5,20.61,57.5,28.5c0,7.888-2.297,15.543-6.642,22.136
		C50.263,51.541,49.258,52.082,48.173,52.082z M32.318,47.345c-0.691,0-1.403-0.316-2.116-0.942l-8.185-7.162h-7.976
		c-2.504,0-4.542-2.037-4.542-4.542V22.3c0-2.505,2.038-4.542,4.542-4.542h7.976l8.185-7.163c0.714-0.625,1.426-0.941,2.116-0.941
		c1.018,0,2.207,0.761,2.207,2.904v31.881c0,0.802-0.167,1.463-0.495,1.964C33.632,47.011,33.024,47.345,32.318,47.345
		L32.318,47.345z M41.105,45.015c-0.544,0-1.084-0.14-1.563-0.405c-0.756-0.423-1.298-1.11-1.53-1.938
		c-0.232-0.826-0.129-1.692,0.291-2.44c2.001-3.576,3.059-7.634,3.059-11.731c0-4.095-1.058-8.153-3.06-11.735
		c-0.42-0.747-0.522-1.614-0.289-2.441s0.775-1.512,1.526-1.93c0.477-0.268,1.02-0.41,1.566-0.41c1.166,0,2.242,0.631,2.808,1.648
		c2.535,4.538,3.876,9.679,3.876,14.868c0,5.19-1.341,10.333-3.877,14.872C43.343,44.385,42.268,45.015,41.105,45.015z"/>
	<path opacity="0.15" d="M30.861,11.347l-8.468,7.41h-8.352c-1.947,0-3.542,1.595-3.542,3.542v12.398
		c0,1.947,1.595,3.542,3.542,3.542h8.352l8.468,7.41c1.464,1.283,2.664,0.737,2.664-1.211V12.558
		C33.525,10.61,32.325,10.067,30.861,11.347z M43.039,14.118c-0.595-1.069-1.947-1.449-3.014-0.851
		c-1.068,0.595-1.449,1.944-0.851,3.01c2.086,3.733,3.187,7.96,3.187,12.223c0,4.264-1.101,8.492-3.187,12.221
		c-0.599,1.065-0.218,2.415,0.851,3.014c0.343,0.189,0.713,0.28,1.08,0.28c0.774,0,1.528-0.409,1.934-1.132
		c2.453-4.39,3.75-9.364,3.75-14.383C46.789,23.479,45.492,18.508,43.039,14.118z M50.023,6.912
		c-0.675-1.021-2.048-1.301-3.068-0.629c-1.021,0.671-1.305,2.044-0.63,3.065c3.761,5.708,5.746,12.33,5.746,19.152
		c0,6.821-1.985,13.446-5.746,19.151c-0.675,1.021-0.391,2.394,0.63,3.068c0.377,0.245,0.799,0.363,1.218,0.363
		c0.72,0,1.425-0.35,1.851-0.996C54.262,43.654,56.5,36.192,56.5,28.5C56.5,20.809,54.262,13.343,50.023,6.912z"/>
	<linearGradient id="SVGID_1_" gradientUnits="userSpaceOnUse" x1="33.5005" y1="51.082" x2="33.5005" y2="5.918">
		<stop  offset="0" style="stop-color:#D0CBC5"/>
		<stop  offset="0.5031" style="stop-color:#FAFCEF"/>
		<stop  offset="0.9693" style="stop-color:#FFFFFF"/>
	</linearGradient>
	<path fill="url(#SVGID_1_)" d="M30.861,11.347l-8.468,7.41h-8.352c-1.947,0-3.542,1.595-3.542,3.542v12.398
		c0,1.947,1.595,3.542,3.542,3.542h8.352l8.468,7.41c1.464,1.283,2.664,0.737,2.664-1.211V12.558
		C33.525,10.61,32.325,10.067,30.861,11.347z M43.039,14.118c-0.595-1.069-1.947-1.449-3.014-0.851
		c-1.068,0.595-1.449,1.944-0.851,3.01c2.086,3.733,3.187,7.96,3.187,12.223c0,4.264-1.101,8.492-3.187,12.221
		c-0.599,1.065-0.218,2.415,0.851,3.014c0.343,0.189,0.713,0.28,1.08,0.28c0.774,0,1.528-0.409,1.934-1.132
		c2.453-4.39,3.75-9.364,3.75-14.383C46.789,23.479,45.492,18.508,43.039,14.118z M50.023,6.912
		c-0.675-1.021-2.048-1.301-3.068-0.629c-1.021,0.671-1.305,2.044-0.63,3.065c3.761,5.708,5.746,12.33,5.746,19.152
		c0,6.821-1.985,13.446-5.746,19.151c-0.675,1.021-0.391,2.394,0.63,3.068c0.377,0.245,0.799,0.363,1.218,0.363
		c0.72,0,1.425-0.35,1.851-0.996C54.262,43.654,56.5,36.192,56.5,28.5C56.5,20.809,54.262,13.343,50.023,6.912z"/>
	<path fill="#FFFFFF" d="M46.325,48.65c-0.15,0.227-0.245,0.473-0.303,0.723c-0.134-0.572-0.047-1.194,0.303-1.723
		c3.669-5.565,5.633-12.007,5.728-18.651c0.003,0.167,0.019,0.333,0.019,0.5C52.071,36.32,50.086,42.945,46.325,48.65z
		 M46.955,7.283c1.021-0.671,2.394-0.391,3.068,0.629C54.17,14.203,56.387,21.486,56.481,29c0.003-0.167,0.019-0.333,0.019-0.5
		c0-7.691-2.238-15.156-6.477-21.587c-0.675-1.021-2.048-1.301-3.068-0.629c-0.794,0.522-1.135,1.468-0.933,2.343
		C46.147,8.094,46.463,7.606,46.955,7.283z M40.025,14.267c1.066-0.598,2.419-0.218,3.014,0.851
		c2.371,4.244,3.65,9.032,3.734,13.881c0.002-0.167,0.016-0.333,0.016-0.5c0-5.02-1.297-9.991-3.75-14.381
		c-0.595-1.069-1.947-1.449-3.014-0.851c-0.879,0.49-1.282,1.489-1.067,2.422C39.096,15.107,39.461,14.582,40.025,14.267z
		 M39.175,41.721c2.086-3.729,3.187-7.957,3.187-12.221c0-0.167-0.013-0.333-0.016-0.5c-0.083,4.094-1.167,8.138-3.171,11.721
		c-0.282,0.503-0.34,1.067-0.217,1.588C39.004,42.107,39.068,41.909,39.175,41.721z M30.861,11.347l-8.468,7.41h-8.352
		c-1.947,0-3.542,1.595-3.542,3.542v1c0-1.948,1.595-3.542,3.542-3.542h8.352l8.468-7.41c1.464-1.28,2.664-0.737,2.664,1.211v-1
		C33.525,10.61,32.325,10.067,30.861,11.347z"/>
</g>
<g id="DO_NOT_EDIT_-_FOCAL_ZONE_GUIDES">
</g>
</svg>
