<?xml version="1.0"?>
<!-- Converted with SVG Converter - Version 0.9.5 (Compiled Mon May 30 09:08:51 2011) - Copyright (C) 2011 Nokia -->
<svg xmlns="http://www.w3.org/2000/svg" width="30" version="1.1" viewBox="0 0 24 24" height="30" baseProfile="tiny" xmlns:xlink="http://www.w3.org/1999/xlink" id="svg2">
 <metadata id="metadata11"/>
 <defs id="defs9"/>
 <path style="opacity:1;fill:#ffffff;fill-opacity:1" id="path5" d="m 0.4684585,6.1551844 c 0.9561491,-2.8527728 3.87162,-4.8120948 6.81844,-4.9688406 1.797352,-0.1567457 3.3230105,0.9509243 4.7128225,1.922748 1.395037,-0.9770486 2.920696,-2.0794937 4.718047,-1.9279728 2.952045,0.1671955 5.877966,2.1265174 6.823666,4.9949648 0.89345,2.6542284 0.444113,5.6532972 -1.024073,8.0201582 -2.392985,3.949993 -6.295954,6.891588 -10.51764,8.636691 C 7.7675855,21.077381 3.8437175,18.13056 1.4611816,14.149218 -0.0017783,11.792807 -0.4302169,8.7989631 0.4684585,6.1551844 M 2.2449104,5.909616 c -1.0397469,2.2466894 -0.8986757,5.01064 0.3814147,7.137157 2.1265174,3.646951 5.5958234,6.358653 9.3733959,8.135105 3.458856,-1.614482 6.609446,-4.023141 8.793437,-7.178956 C 22.18297,12.111523 22.794279,9.6767393 22.250894,7.3673516 21.859029,4.9325674 19.643689,3.1195415 17.229804,2.915772 15.150311,2.5030082 13.415658,3.9189449 11.999721,5.2356092 10.787554,4.2167618 9.5283635,2.9836952 7.8511835,2.8739732 5.6306185,2.7642511 3.2219585,3.8196725 2.2449104,5.909616 Z"/>
</svg>
