<?xml version="1.0" encoding="utf-8"?>
<!-- Generator: Adobe Illustrator 18.0.0, SVG Export Plug-In . SVG Version: 6.00 Build 0)  -->
<svg version="1.1" id="图层_1" xmlns="http://www.w3.org/2000/svg" xmlns:xlink="http://www.w3.org/1999/xlink" x="0px" y="0px"
	 width="96px" height="96px" viewBox="0 0 96 96" enable-background="new 0 0 96 96" xml:space="preserve">
<path fill-opacity="0.4" d="M88,49c0,29.633-10.363,40-40,40C18.365,89,8,78.633,8,49C8,19.365,18.365,9,48,9
	C77.637,9,88,19.365,88,49z"/>
<rect fill="none" width="96" height="96"/>
<linearGradient id="SVGID_1_" gradientUnits="userSpaceOnUse" x1="295.6602" y1="-827.5049" x2="295.6602" y2="-908.2008" gradientTransform="matrix(1 0 0 -1 -247.6602 -818.96)">
	<stop  offset="0" style="stop-color:#F62E1C"/>
	<stop  offset="0.5" style="stop-color:#E20100"/>
	<stop  offset="1" style="stop-color:#A30100"/>
</linearGradient>
<path fill="url(#SVGID_1_)" d="M88,48c0,29.633-10.363,40-40,40C18.365,88,8,77.633,8,48C8,18.365,18.365,8,48,8
	C77.637,8,88,18.365,88,48z"/>
<linearGradient id="SVGID_2_" gradientUnits="userSpaceOnUse" x1="295.6602" y1="-827.2129" x2="295.6602" y2="-906.459" gradientTransform="matrix(1 0 0 -1 -247.6602 -818.96)">
	<stop  offset="0" style="stop-color:#FFFFFF;stop-opacity:0.8"/>
	<stop  offset="0.6" style="stop-color:#FFFFFF;stop-opacity:0"/>
	<stop  offset="1" style="stop-color:#000000;stop-opacity:0.4"/>
</linearGradient>
<path fill="url(#SVGID_2_)" fill-opacity="0.25" d="M48,8C18.365,8,8,18.365,8,48c0,29.633,10.365,40,40,40
	c29.637,0,40-10.367,40-40C88,18.365,77.637,8,48,8z M48,87C18.842,87,9,77.159,9,48C9,18.842,18.842,9,48,9s39,9.842,39,39
	C87,77.159,77.158,87,48,87z"/>
<g>
	<path opacity="0.02" enable-background="new    " d="M48.663,80.219c-0.547,0-1.094-0.017-1.644-0.048
		c-6.588-0.374-12.396-2.872-17.261-7.425c-4.781-4.475-7.725-9.978-8.75-16.357c-1.399-8.709,0.764-16.552,6.427-23.31
		c3.075-3.669,6.98-6.425,11.607-8.19c0.814-0.311,1.666-0.468,2.53-0.468c1.478,0,2.87,0.448,4.029,1.281
		c0.428-0.663,0.929-1.297,1.499-1.898c2.07-2.183,4.582-3.491,7.464-3.888l0.637-0.093c0.21-0.029,0.394-0.042,0.577-0.042h0.911
		c0.215,0,0.43,0.018,0.645,0.053l0.46,0.069c0.441,0.065,0.896,0.136,1.345,0.234c2.439,0.537,4.669,1.624,6.624,3.232
		c2.156,1.768,3.041,4.319,2.428,6.998c-0.515,2.267-1.994,4-4.105,4.845c0.667,0.391,1.314,0.822,1.941,1.293
		c3.243,2.437,5.593,5.216,7.183,8.497c1.229,2.54,1.945,5.278,2.131,8.139c0.254,3.922-0.309,7.555-1.673,10.796
		c-3.272,7.761-9.076,12.875-17.252,15.201C53.893,79.855,51.284,80.219,48.663,80.219z M34.568,49.927
		c-0.526,4.018,0.584,7.789,3.312,11.233c1.884,2.378,4.331,3.98,7.274,4.764c1.052,0.281,2.168,0.424,3.32,0.424
		c0.793,0,1.63-0.067,2.487-0.199c2.153-0.333,3.957-1.013,5.515-2.078c2.291-1.57,3.837-3.618,4.594-6.088
		c0.018-0.057,0.034-0.113,0.051-0.17c-0.596,1.154-1.383,2.263-2.357,3.32c-2.714,2.945-6.087,4.439-10.025,4.439
		c-0.476,0-0.972-0.024-1.475-0.073c-4.844-0.468-8.513-2.994-10.907-7.51c-1.097-2.067-1.678-4.349-1.777-6.974
		C34.566,50.649,34.562,50.286,34.568,49.927z"/>
	<path opacity="0.04" enable-background="new    " d="M48.663,79.219c-0.528,0-1.056-0.016-1.587-0.046
		c-6.348-0.36-11.945-2.769-16.635-7.157c-4.615-4.319-7.457-9.63-8.445-15.785c-1.351-8.41,0.737-15.983,6.207-22.51
		c2.964-3.537,6.731-6.194,11.197-7.898c0.699-0.267,1.431-0.402,2.173-0.402c1.654,0,3.19,0.669,4.291,1.832
		c0.492-0.979,1.148-1.902,1.962-2.761c1.91-2.014,4.224-3.22,6.875-3.585l0.645-0.094c0.153-0.021,0.293-0.031,0.433-0.031h0.911
		c0.161,0,0.322,0.013,0.483,0.04l0.472,0.071c0.422,0.063,0.854,0.128,1.279,0.222c2.283,0.502,4.371,1.521,6.204,3.028
		c1.852,1.519,2.613,3.707,2.088,6.002c-0.487,2.144-1.983,3.728-4.102,4.347c-0.565,0.165-1.138,0.248-1.701,0.248
		c-0.256,0-0.508-0.016-0.757-0.049c1.688,0.624,3.283,1.498,4.769,2.615c3.113,2.339,5.365,5,6.884,8.134
		c1.173,2.423,1.856,5.036,2.033,7.768c0.244,3.766-0.293,7.246-1.597,10.344c-3.148,7.467-8.734,12.388-16.604,14.627
		C53.708,78.868,51.192,79.219,48.663,79.219z M40.628,38.45c-3.42,2.181-5.661,5.327-6.677,9.388
		c-1.258,5.029-0.2,9.72,3.146,13.943c2.021,2.551,4.645,4.27,7.8,5.109c1.137,0.304,2.34,0.457,3.577,0.457
		c0.847,0,1.735-0.071,2.639-0.211c2.306-0.356,4.244-1.09,5.927-2.241c2.482-1.701,4.16-3.929,4.985-6.62
		c0.757-2.468,0.717-4.828-0.118-7.014c-0.151-0.395-0.331-0.775-0.541-1.146c0.587,3.823-0.533,7.296-3.339,10.339
		c-2.517,2.731-5.643,4.117-9.29,4.117c-0.453,0-0.912-0.023-1.379-0.068c-4.488-0.434-7.893-2.783-10.119-6.983
		c-1.024-1.932-1.567-4.072-1.661-6.543c-0.137-3.705,0.803-7.039,2.796-9.908C39.044,40.104,39.793,39.233,40.628,38.45z
		 M48.306,47.601c-0.854,1.066-1.083,2.268-0.742,3.898c0.14,0.67,0.406,0.932,0.648,1.1c0.106,0.074,0.241,0.113,0.391,0.113
		c0.202,0,0.403-0.065,0.582-0.189c0.522-0.361,0.425-0.742,0.394-0.867c-0.29-1.133-0.591-2.264-0.893-3.395l-0.224-0.843
		C48.408,47.477,48.356,47.538,48.306,47.601z M57.122,33.77c0.568,0.09,1.129,0.205,1.68,0.345
		c-0.403-0.204-0.794-0.458-1.172-0.76c-0.272-0.219-0.52-0.382-0.745-0.493C56.89,32.879,57.122,33.77,57.122,33.77z"/>
	<path opacity="0.06" enable-background="new    " d="M48.663,78.219c-0.509,0-1.018-0.015-1.53-0.044
		c-6.107-0.347-11.494-2.664-16.009-6.89c-4.45-4.164-7.188-9.282-8.141-15.213c-1.303-8.111,0.711-15.416,5.986-21.709
		c2.853-3.404,6.482-5.963,10.787-7.605c0.585-0.224,1.197-0.337,1.817-0.337c1.705,0,3.259,0.854,4.158,2.285
		c0.144,0.229,0.268,0.466,0.37,0.708c0.418-1.538,1.236-2.953,2.451-4.234c1.75-1.845,3.865-2.949,6.286-3.282l0.652-0.095
		c0.099-0.014,0.193-0.021,0.288-0.021h0.911c0.107,0,0.215,0.009,0.322,0.026l0.482,0.073c0.403,0.06,0.812,0.121,1.215,0.21
		c2.128,0.468,4.074,1.418,5.784,2.824c1.548,1.27,2.186,3.094,1.748,5.006c-0.405,1.78-1.647,3.096-3.407,3.61
		c-0.475,0.138-0.953,0.208-1.421,0.208c-1.131,0-2.193-0.392-3.157-1.165c-0.754-0.604-1.393-0.885-2.01-0.885
		c-0.064,0-0.131,0.002-0.196,0.009c-0.043,0.007-0.188,0.078-0.317,0.233c-0.047,0.057-0.075,0.107-0.091,0.139
		c0.027,0.175,0.095,0.408,0.16,0.635c0.057,0.197,0.095,0.329,0.129,0.461c0.088,0.343,0.261,1,0.393,1.502
		c3.113,0.379,5.97,1.534,8.501,3.437c2.984,2.242,5.138,4.784,6.585,7.771c1.116,2.307,1.767,4.795,1.935,7.396
		c0.234,3.61-0.277,6.938-1.521,9.892c-3.024,7.173-8.393,11.9-15.955,14.053C53.524,77.881,51.101,78.219,48.663,78.219z
		 M45.922,33.664c-0.253,0.475-0.589,0.913-1.004,1.292c-0.446,0.408-1.012,0.758-1.638,1.013
		c-5.461,2.23-8.926,6.141-10.299,11.626c-1.337,5.346-0.216,10.328,3.332,14.807c2.157,2.724,4.958,4.559,8.327,5.455
		c1.22,0.325,2.51,0.49,3.834,0.49c0.9,0,1.839-0.075,2.792-0.223c2.457-0.38,4.53-1.167,6.338-2.404
		c2.674-1.832,4.483-4.238,5.377-7.152c0.824-2.687,0.776-5.266-0.141-7.664c-0.642-1.68-1.757-3.151-3.402-4.482
		c0.221,0.827,0.441,1.654,0.656,2.482c1.055,4.054,0.112,7.712-2.803,10.874c-2.32,2.519-5.199,3.795-8.555,3.795
		c-0.421,0-0.849-0.021-1.283-0.063c-4.133-0.399-7.272-2.572-9.332-6.457c-0.952-1.795-1.457-3.794-1.544-6.112
		c-0.129-3.483,0.751-6.611,2.618-9.3c1.771-2.552,4.153-4.419,7.264-5.689c-0.005-0.021-0.149-0.594-0.149-0.594
		C46.165,34.799,46.021,34.242,45.922,33.664z M49.03,45.662c-0.599,0.365-1.089,0.794-1.505,1.313
		c-1.044,1.303-1.343,2.806-0.94,4.729c0.164,0.784,0.5,1.329,1.056,1.716c0.274,0.191,0.606,0.292,0.961,0.292
		c0.407,0,0.804-0.127,1.152-0.368c0.695-0.48,0.983-1.186,0.792-1.936c-0.294-1.149-0.6-2.296-0.905-3.443L49.03,45.662z"/>
	<path opacity="0.08" enable-background="new    " d="M48.663,77.219c-0.49,0-0.98-0.014-1.472-0.042
		c-5.869-0.333-11.045-2.562-15.384-6.622c-4.284-4.009-6.92-8.935-7.837-14.641c-1.254-7.812,0.685-14.847,5.765-20.909
		c2.742-3.272,6.233-5.732,10.377-7.313c0.472-0.18,0.963-0.271,1.46-0.271c1.359,0,2.597,0.679,3.311,1.817
		c1.016,1.617,0.747,3.712-0.641,4.981c-0.36,0.329-0.823,0.614-1.341,0.825c-5.773,2.357-9.437,6.498-10.891,12.309
		c-1.417,5.663-0.232,10.936,3.519,15.671c2.294,2.896,5.272,4.848,8.853,5.801c1.305,0.348,2.682,0.523,4.092,0.523
		c0.946,0,1.937-0.078,2.946-0.234c2.605-0.403,4.813-1.242,6.749-2.567c2.865-1.963,4.807-4.548,5.769-7.685
		c0.891-2.904,0.836-5.702-0.163-8.314c-0.77-2.017-2.146-3.747-4.206-5.291c-0.597-0.447-1.181-0.805-1.763-1.077l0.513,1.924
		c0.271,1.017,0.544,2.034,0.809,3.052c0.964,3.704,0.099,7.05-2.57,9.944c-2.124,2.305-4.755,3.473-7.819,3.473
		c-0.389,0-0.785-0.02-1.186-0.059c-3.778-0.365-6.653-2.361-8.545-5.931c-0.88-1.659-1.347-3.518-1.428-5.682
		c-0.122-3.261,0.699-6.185,2.439-8.691c1.806-2.603,4.304-4.45,7.632-5.645c-0.081-0.303-0.16-0.605-0.232-0.909
		c-0.051-0.212-0.106-0.424-0.161-0.636c-0.162-0.624-0.329-1.269-0.41-1.947c-0.326-2.736,0.492-5.161,2.432-7.205
		c1.59-1.676,3.507-2.679,5.697-2.98l0.66-0.096c0.048-0.007,0.096-0.01,0.144-0.01h0.911c0.054,0,0.107,0.004,0.161,0.013
		l0.493,0.075c0.385,0.057,0.771,0.114,1.15,0.198c1.973,0.434,3.777,1.315,5.364,2.62c1.263,1.036,1.763,2.46,1.408,4.011
		c-0.327,1.437-1.291,2.458-2.713,2.873c-0.383,0.111-0.767,0.168-1.141,0.168c-0.898,0-1.75-0.318-2.532-0.945
		c-0.94-0.754-1.778-1.105-2.635-1.105c-0.095,0-0.19,0.004-0.287,0.013c-0.335,0.03-0.716,0.255-0.994,0.589
		c-0.223,0.267-0.349,0.575-0.327,0.803c0.024,0.268,0.111,0.57,0.204,0.89c0.041,0.144,0.083,0.288,0.12,0.432
		c0.155,0.603,0.571,2.176,0.571,2.176c3.197,0.267,6.119,1.379,8.69,3.312c2.853,2.144,4.909,4.566,6.285,7.407
		c1.06,2.189,1.678,4.553,1.837,7.024c0.225,3.455-0.262,6.631-1.444,9.439c-2.9,6.878-8.05,11.413-15.307,13.479
		C53.341,76.894,51.009,77.219,48.663,77.219z M49.682,44.216c-1.255,0.527-2.203,1.218-2.937,2.134
		c-1.229,1.533-1.601,3.352-1.139,5.559c0.216,1.035,0.695,1.798,1.463,2.332c0.442,0.309,0.972,0.471,1.532,0.471
		c0.61,0,1.206-0.188,1.722-0.547c1.042-0.721,1.486-1.844,1.19-3.004c-0.301-1.177-0.613-2.349-0.926-3.522L49.682,44.216z"/>
	<path opacity="0.1" enable-background="new    " d="M56.69,23.781c0.53,0.086,1.066,0.147,1.59,0.263
		c1.841,0.405,3.49,1.221,4.945,2.415c0.955,0.784,1.344,1.806,1.068,3.016c-0.248,1.088-0.944,1.822-2.018,2.135
		c-1.015,0.296-1.934,0.071-2.768-0.597c-1.057-0.847-2.23-1.433-3.636-1.308c-1.191,0.106-2.331,1.36-2.228,2.479
		c0.046,0.501,0.225,0.99,0.352,1.482c0.225,0.87,0.456,1.738,0.685,2.607c0.04,0.15,0.076,0.269,0.286,0.281
		c3.203,0.175,6.088,1.216,8.659,3.149c2.528,1.9,4.598,4.179,5.985,7.044c1.018,2.102,1.589,4.322,1.74,6.653
		c0.201,3.096-0.163,6.126-1.369,8.987c-2.801,6.647-7.73,10.933-14.658,12.905c-2.636,0.75-5.338,1.043-8.073,0.888
		c-5.684-0.323-10.609-2.471-14.757-6.354c-4.093-3.83-6.645-8.54-7.533-14.068c-1.208-7.52,0.645-14.262,5.544-20.109
		c2.692-3.212,6.05-5.527,9.967-7.021c1.35-0.515,2.827-0.036,3.568,1.143c0.757,1.204,0.579,2.752-0.469,3.711
		c-0.296,0.271-0.67,0.485-1.044,0.637c-5.971,2.438-9.916,6.731-11.483,12.992c-1.52,6.075-0.176,11.636,3.705,16.535
		c2.433,3.071,5.575,5.134,9.379,6.147c2.459,0.655,4.943,0.697,7.447,0.31c2.584-0.4,4.997-1.249,7.161-2.731
		c2.978-2.039,5.099-4.758,6.16-8.216c0.916-2.987,0.948-6.001-0.184-8.965c-0.911-2.385-2.521-4.221-4.541-5.734
		c-1.079-0.808-2.238-1.44-3.559-1.75c-0.06-0.014-0.121-0.021-0.23-0.039c0.18,0.692,0.348,1.348,0.522,2.002
		c0.419,1.579,0.847,3.157,1.259,4.738c0.895,3.437,0.029,6.448-2.338,9.015c-2.189,2.373-4.977,3.406-8.174,3.096
		c-3.56-0.345-6.1-2.276-7.758-5.404c-0.868-1.638-1.243-3.403-1.312-5.25c-0.11-2.941,0.576-5.657,2.261-8.084
		c1.809-2.607,4.316-4.28,7.277-5.319c0.233-0.082,0.469-0.156,0.742-0.247c-0.159-0.605-0.326-1.195-0.469-1.791
		c-0.197-0.82-0.451-1.635-0.55-2.468c-0.294-2.463,0.462-4.605,2.164-6.398c1.393-1.468,3.084-2.4,5.108-2.678
		c0.223-0.031,0.445-0.065,0.668-0.097C56.082,23.781,56.386,23.781,56.69,23.781z M50.368,42.901
		c-1.754,0.557-3.268,1.408-4.403,2.824c-1.519,1.896-1.823,4.074-1.338,6.389c0.252,1.202,0.839,2.231,1.871,2.948
		c1.29,0.898,3.047,0.859,4.396-0.075c1.379-0.955,1.993-2.494,1.59-4.074c-0.441-1.73-0.91-3.453-1.367-5.179
		C50.871,44.805,50.625,43.875,50.368,42.901z"/>
	
		<linearGradient id="SVGID_3_" gradientUnits="userSpaceOnUse" x1="48.0022" y1="23.7798" x2="48.0022" y2="76.219" gradientTransform="matrix(1 0 0 -1 0 98)">
		<stop  offset="0" style="stop-color:#C6C6C6"/>
		<stop  offset="1" style="stop-color:#F5F5F5"/>
	</linearGradient>
	<path fill="url(#SVGID_3_)" d="M56.69,21.781c0.53,0.086,1.066,0.147,1.59,0.263c1.841,0.405,3.49,1.221,4.945,2.415
		c0.955,0.784,1.344,1.806,1.068,3.016c-0.248,1.088-0.944,1.822-2.018,2.135c-1.015,0.296-1.934,0.071-2.768-0.597
		c-1.057-0.847-2.23-1.433-3.636-1.308c-1.191,0.106-2.331,1.36-2.228,2.479c0.046,0.501,0.225,0.99,0.352,1.482
		c0.225,0.87,0.456,1.738,0.685,2.607c0.04,0.15,0.076,0.269,0.286,0.281c3.203,0.175,6.088,1.216,8.659,3.149
		c2.528,1.9,4.598,4.179,5.985,7.044c1.018,2.102,1.589,4.322,1.74,6.653c0.201,3.096-0.163,6.126-1.369,8.987
		c-2.801,6.647-7.73,10.933-14.658,12.905c-2.636,0.75-5.338,1.043-8.073,0.888c-5.684-0.323-10.609-2.471-14.757-6.354
		c-4.093-3.83-6.645-8.54-7.533-14.068c-1.208-7.52,0.645-14.262,5.544-20.109c2.692-3.212,6.05-5.527,9.967-7.021
		c1.35-0.515,2.827-0.036,3.568,1.143c0.757,1.204,0.579,2.752-0.469,3.711c-0.296,0.271-0.67,0.485-1.044,0.637
		c-5.971,2.438-9.916,6.731-11.483,12.992c-1.52,6.075-0.176,11.636,3.705,16.535c2.433,3.071,5.575,5.134,9.379,6.147
		c2.459,0.655,4.943,0.697,7.447,0.31c2.584-0.4,4.997-1.249,7.161-2.731c2.978-2.039,5.099-4.758,6.16-8.216
		c0.916-2.987,0.948-6.001-0.184-8.965c-0.911-2.385-2.521-4.221-4.541-5.734c-1.079-0.808-2.238-1.44-3.559-1.75
		c-0.06-0.014-0.121-0.021-0.23-0.039c0.18,0.692,0.348,1.348,0.522,2.002c0.419,1.579,0.847,3.157,1.259,4.738
		c0.895,3.437,0.029,6.448-2.338,9.015c-2.189,2.373-4.977,3.406-8.174,3.096c-3.56-0.345-6.1-2.276-7.758-5.404
		c-0.868-1.638-1.243-3.403-1.312-5.25c-0.11-2.941,0.576-5.657,2.261-8.084c1.809-2.607,4.316-4.28,7.277-5.319
		c0.233-0.082,0.469-0.156,0.742-0.247c-0.159-0.605-0.326-1.195-0.469-1.791c-0.197-0.82-0.451-1.635-0.55-2.468
		c-0.294-2.463,0.462-4.605,2.164-6.398c1.393-1.468,3.084-2.4,5.108-2.678c0.223-0.031,0.445-0.065,0.668-0.097
		C56.082,21.781,56.386,21.781,56.69,21.781z M50.368,40.901c-1.754,0.557-3.268,1.408-4.403,2.824
		c-1.519,1.896-1.823,4.074-1.338,6.389c0.252,1.202,0.839,2.231,1.871,2.948c1.29,0.898,3.047,0.859,4.396-0.075
		c1.379-0.955,1.993-2.494,1.59-4.074c-0.441-1.73-0.91-3.453-1.367-5.179C50.871,42.805,50.625,41.875,50.368,40.901z"/>
	<g opacity="0.4">
		<path fill="#FFFFFF" d="M58.157,47.407c-0.4-1.536-0.816-3.069-1.223-4.603c-0.11-0.031-0.215-0.072-0.327-0.099
			c-0.06-0.014-0.121-0.021-0.23-0.039c0.18,0.692,0.348,1.348,0.522,2.002c0.419,1.579,0.847,3.157,1.259,4.738
			c0.145,0.557,0.227,1.099,0.281,1.633C58.574,49.888,58.487,48.677,58.157,47.407z"/>
		<path fill="#FFFFFF" d="M40.836,40.78c-1.685,2.427-2.371,5.142-2.261,8.084c0.005,0.132,0.024,0.26,0.032,0.391
			c0.157-2.326,0.857-4.497,2.229-6.474c1.809-2.607,4.316-4.28,7.277-5.319c0.233-0.082,0.469-0.156,0.742-0.247
			c-0.159-0.605-0.326-1.195-0.469-1.792c-0.004-0.016-0.008-0.032-0.012-0.048c-0.084,0.028-0.179,0.058-0.261,0.087
			C45.152,36.501,42.645,38.173,40.836,40.78z"/>
		<path fill="#FFFFFF" d="M54.961,34.554c-0.21-0.012-0.246-0.131-0.286-0.281c-0.229-0.869-0.46-1.737-0.685-2.607
			c-0.041-0.161-0.089-0.321-0.135-0.481c-0.158,0.323-0.248,0.666-0.217,0.999c0.046,0.501,0.225,0.99,0.352,1.482
			c0.225,0.87,0.456,1.738,0.685,2.607c0.039,0.15,0.076,0.269,0.286,0.281c3.203,0.175,6.088,1.216,8.659,3.149
			c2.528,1.9,4.598,4.179,5.985,7.044c1.018,2.102,1.589,4.322,1.74,6.653c0.013,0.194,0.016,0.387,0.024,0.581
			c0.038-0.854,0.032-1.714-0.024-2.581c-0.151-2.33-0.722-4.55-1.74-6.653c-1.387-2.865-3.457-5.144-5.985-7.044
			C61.049,35.771,58.164,34.729,54.961,34.554z"/>
		<path fill="#FFFFFF" d="M44.625,52.114c0.252,1.202,0.839,2.231,1.871,2.948c1.29,0.898,3.047,0.859,4.396-0.075
			c1.379-0.955,1.992-2.495,1.59-4.074c-0.007-0.026-0.014-0.052-0.021-0.078c-0.235,0.842-0.768,1.597-1.569,2.151
			c-1.349,0.934-3.106,0.972-4.396,0.075c-1.032-0.718-1.619-1.747-1.871-2.948c-0.062-0.295-0.11-0.589-0.145-0.879
			C44.365,50.163,44.418,51.125,44.625,52.114z"/>
		<path fill="#FFFFFF" d="M34.743,63.644c2.433,3.071,5.576,5.134,9.379,6.147c2.459,0.655,4.943,0.697,7.447,0.31
			c2.584-0.4,4.997-1.249,7.161-2.731c2.978-2.039,5.099-4.758,6.16-8.216c0.538-1.753,0.761-3.516,0.632-5.272
			c-0.085,1.092-0.298,2.184-0.632,3.272c-1.061,3.458-3.182,6.177-6.16,8.216c-2.164,1.482-4.577,2.331-7.161,2.731
			c-2.505,0.387-4.989,0.344-7.447-0.31c-3.804-1.013-6.947-3.076-9.379-6.147c-2.607-3.292-4.064-6.883-4.282-10.727
			C30.213,55.521,31.688,59.788,34.743,63.644z"/>
		<path fill="#FFFFFF" d="M30.499,35.647c2.692-3.212,6.05-5.527,9.967-7.021c1.35-0.515,2.827-0.036,3.568,1.143
			c0.118,0.188,0.205,0.385,0.278,0.586c0.307-0.832,0.226-1.784-0.278-2.586c-0.741-1.179-2.218-1.658-3.568-1.143
			c-3.917,1.494-7.275,3.809-9.967,7.021c-4.136,4.935-6.091,10.511-5.877,16.65C24.857,44.942,26.817,40.041,30.499,35.647z"/>
		<path fill="#FFFFFF" d="M47.84,30.981c0.203-1.649,0.931-3.129,2.16-4.424c1.393-1.468,3.084-2.4,5.108-2.678
			c0.223-0.031,0.445-0.065,0.668-0.097c0.304,0,0.607,0,0.911,0c0.53,0.086,1.065,0.147,1.59,0.263
			c1.841,0.406,3.49,1.221,4.945,2.415c0.459,0.376,0.783,0.809,0.97,1.29c0.03-0.094,0.076-0.174,0.098-0.274
			c0.276-1.211-0.113-2.233-1.068-3.016c-1.455-1.195-3.104-2.01-4.945-2.415c-0.524-0.115-1.06-0.176-1.59-0.263
			c-0.304,0-0.607,0-0.911,0c-0.222,0.032-0.445,0.066-0.668,0.097c-2.024,0.278-3.715,1.21-5.108,2.678
			c-1.701,1.793-2.458,3.936-2.164,6.398C47.837,30.963,47.839,30.972,47.84,30.981z"/>
	</g>
	<g opacity="0.05">
		<path d="M38.574,48.864c0.069,1.847,0.444,3.612,1.312,5.25c1.658,3.128,4.199,5.06,7.758,5.404
			c3.197,0.309,5.985-0.723,8.174-3.096c1.879-2.038,2.794-4.36,2.65-6.949c-0.118,2.189-1.017,4.178-2.65,5.949
			c-2.189,2.373-4.977,3.406-8.174,3.096c-3.56-0.345-6.1-2.276-7.758-5.404c-0.868-1.638-1.243-3.403-1.312-5.25
			c-0.002-0.046,0.001-0.091,0-0.137C38.561,48.102,38.56,48.481,38.574,48.864z"/>
		<path d="M42.521,31.117c-5.971,2.438-9.916,6.731-11.483,12.992c-0.451,1.804-0.644,3.56-0.599,5.269
			c0.04-1.393,0.235-2.816,0.599-4.269c1.567-6.261,5.512-10.554,11.483-12.992c0.374-0.153,0.748-0.366,1.044-0.637
			c0.75-0.686,1.046-1.673,0.881-2.621c-0.106,0.604-0.396,1.177-0.881,1.621C43.269,30.751,42.895,30.965,42.521,31.117z"/>
		<path d="M62.271,28.611c-1.015,0.296-1.934,0.071-2.768-0.597c-1.057-0.847-2.23-1.433-3.636-1.308
			c-1.191,0.106-2.331,1.36-2.228,2.479c0.012,0.127,0.048,0.252,0.074,0.378c0.256-0.918,1.182-1.77,2.154-1.857
			c1.406-0.125,2.579,0.461,3.636,1.308c0.834,0.669,1.752,0.893,2.768,0.597c1.074-0.313,1.77-1.046,2.018-2.135
			c0.1-0.44,0.11-0.855,0.04-1.243c-0.013,0.081-0.021,0.16-0.04,0.243C64.041,27.564,63.345,28.297,62.271,28.611z"/>
		<path d="M45.962,42.725c-1.19,1.485-1.626,3.145-1.529,4.907c0.095-1.391,0.567-2.706,1.529-3.907
			c1.135-1.416,2.649-2.267,4.403-2.824c0.258,0.974,0.503,1.904,0.749,2.833c0.456,1.726,0.926,3.449,1.367,5.179
			c0.038,0.148,0.058,0.294,0.078,0.441c0.063-0.466,0.047-0.951-0.078-1.441c-0.441-1.73-0.91-3.453-1.367-5.179
			c-0.246-0.93-0.491-1.859-0.749-2.833C48.611,40.458,47.097,41.309,45.962,42.725z"/>
		<path d="M64.706,47.189c-0.911-2.385-2.521-4.22-4.541-5.734c-1.079-0.808-2.238-1.44-3.559-1.75
			c-0.06-0.014-0.121-0.021-0.23-0.039c0.095,0.363,0.184,0.703,0.274,1.052c1.302,0.313,2.448,0.937,3.515,1.737
			c2.02,1.514,3.63,3.349,4.541,5.734c0.523,1.368,0.787,2.747,0.841,4.129C65.61,50.602,65.355,48.887,64.706,47.189z"/>
		<path d="M69.976,59.386c-2.801,6.647-7.73,10.933-14.658,12.905c-2.636,0.75-5.338,1.043-8.073,0.888
			c-5.684-0.323-10.609-2.471-14.757-6.354c-4.093-3.83-6.645-8.54-7.533-14.068c-0.207-1.291-0.318-2.558-0.345-3.803
			c-0.027,1.564,0.082,3.164,0.345,4.803c0.888,5.529,3.44,10.238,7.533,14.068c4.149,3.883,9.073,6.031,14.757,6.354
			c2.735,0.155,5.437-0.138,8.073-0.888c6.928-1.971,11.857-6.258,14.658-12.905c1.073-2.547,1.476-5.228,1.411-7.971
			C71.341,54.809,70.919,57.149,69.976,59.386z"/>
		<path d="M48.386,33.423c0.07,0.29,0.151,0.582,0.228,0.872c0.082-0.027,0.152-0.051,0.241-0.08
			c-0.159-0.605-0.326-1.195-0.469-1.792c-0.197-0.82-0.451-1.635-0.55-2.468c-0.021-0.179-0.025-0.353-0.036-0.529
			c-0.032,0.496-0.027,1.004,0.036,1.529C47.935,31.788,48.189,32.603,48.386,33.423z"/>
	</g>
	<g opacity="0.05">
		<path d="M62.277,27.611c-1.015,0.296-1.934,0.071-2.768-0.597c-1.057-0.847-2.23-1.433-3.636-1.308
			c-1.191,0.106-2.331,1.36-2.228,2.479c0.031,0.337,0.122,0.669,0.217,1.001c0.373-0.762,1.175-1.405,2.011-1.48
			c1.406-0.125,2.579,0.461,3.636,1.308c0.834,0.669,1.752,0.893,2.768,0.597c1.074-0.313,1.77-1.046,2.018-2.135
			c0.144-0.629,0.104-1.206-0.098-1.726C63.897,26.679,63.252,27.326,62.277,27.611z"/>
		<path d="M42.526,30.117c-5.971,2.438-9.916,6.731-11.483,12.992c-0.499,1.994-0.683,3.93-0.577,5.808
			c0.067-1.246,0.253-2.514,0.577-3.808c1.567-6.261,5.512-10.554,11.483-12.992c0.374-0.153,0.748-0.366,1.044-0.637
			c0.885-0.809,1.141-2.038,0.747-3.125c-0.154,0.417-0.397,0.805-0.747,1.125C43.275,29.751,42.9,29.965,42.526,30.117z"/>
		<path d="M45.968,41.725c-1.326,1.654-1.724,3.523-1.483,5.51c0.153-1.243,0.613-2.424,1.483-3.51
			c1.135-1.416,2.649-2.267,4.403-2.824c0.258,0.974,0.503,1.904,0.749,2.833c0.45,1.701,0.911,3.398,1.346,5.102
			c0.17-0.608,0.189-1.26,0.021-1.922c-0.441-1.73-0.91-3.453-1.367-5.179c-0.246-0.93-0.491-1.859-0.749-2.833
			C48.617,39.458,47.103,40.309,45.968,41.725z"/>
		<path d="M38.58,48.864c0.069,1.847,0.444,3.612,1.312,5.25c1.658,3.128,4.199,5.06,7.758,5.404
			c3.197,0.309,5.985-0.723,8.174-3.096c1.983-2.151,2.896-4.618,2.618-7.382c-0.234,1.967-1.126,3.764-2.618,5.382
			c-2.189,2.373-4.977,3.406-8.174,3.096c-3.56-0.345-6.1-2.276-7.758-5.404c-0.806-1.521-1.174-3.155-1.28-4.86
			C38.576,47.784,38.56,48.319,38.58,48.864z"/>
		<path d="M69.982,58.386c-2.801,6.647-7.73,10.933-14.658,12.905c-2.636,0.75-5.338,1.043-8.073,0.888
			c-5.684-0.323-10.609-2.471-14.757-6.354c-4.093-3.83-6.645-8.54-7.533-14.068c-0.188-1.173-0.293-2.324-0.333-3.459
			c-0.078,1.771,0.033,3.591,0.333,5.459c0.888,5.529,3.44,10.238,7.533,14.068c4.149,3.883,9.073,6.031,14.757,6.354
			c2.735,0.155,5.437-0.138,8.073-0.888c6.928-1.971,11.857-6.258,14.658-12.905c1.13-2.681,1.513-5.512,1.393-8.406
			C71.276,54.177,70.85,56.326,69.982,58.386z"/>
		<path d="M64.712,46.189c-0.911-2.385-2.521-4.22-4.541-5.734c-1.079-0.808-2.238-1.44-3.559-1.75
			c-0.06-0.014-0.121-0.021-0.23-0.039c0.18,0.692,0.348,1.348,0.522,2.002c0.012,0.045,0.024,0.09,0.036,0.135
			c1.184,0.332,2.244,0.911,3.232,1.651c2.02,1.514,3.63,3.349,4.541,5.734c0.468,1.224,0.726,2.457,0.817,3.693
			C65.678,49.977,65.432,48.073,64.712,46.189z"/>
		<path d="M48.38,33.374c0.155-0.052,0.304-0.101,0.481-0.16c-0.159-0.605-0.326-1.195-0.469-1.792
			c-0.195-0.811-0.445-1.618-0.546-2.442c-0.078,0.634-0.086,1.29-0.004,1.974C47.939,31.771,48.184,32.571,48.38,33.374z"/>
	</g>
	<g>
		<path fill="#FFFFFF" d="M58.158,47.407c-0.412-1.581-0.84-3.159-1.259-4.738c-0.082-0.311-0.166-0.635-0.248-0.95
			c-0.015-0.004-0.029-0.01-0.044-0.013c-0.06-0.014-0.121-0.021-0.23-0.039c0.18,0.692,0.348,1.348,0.522,2.002
			c0.419,1.579,0.847,3.157,1.259,4.738c0.184,0.708,0.276,1.394,0.313,2.065C58.524,49.49,58.436,48.472,58.158,47.407z"/>
		<path fill="#FFFFFF" d="M40.837,40.78c-1.658,2.389-2.345,5.058-2.262,7.946c0.088-2.506,0.796-4.836,2.262-6.946
			c1.809-2.607,4.316-4.28,7.277-5.319c0.233-0.082,0.469-0.156,0.742-0.247c-0.082-0.311-0.159-0.614-0.241-0.92
			c-0.171,0.056-0.344,0.112-0.501,0.167C45.153,36.501,42.647,38.173,40.837,40.78z"/>
		<path fill="#FFFFFF" d="M54.963,34.554c-0.21-0.012-0.246-0.131-0.286-0.281c-0.229-0.869-0.46-1.737-0.685-2.607
			c-0.095-0.367-0.202-0.734-0.278-1.104c-0.058,0.207-0.093,0.416-0.074,0.622c0.046,0.501,0.225,0.99,0.352,1.482
			c0.225,0.87,0.456,1.738,0.685,2.607c0.039,0.15,0.076,0.269,0.286,0.281c3.203,0.175,6.088,1.216,8.659,3.149
			c2.528,1.9,4.598,4.179,5.985,7.044c1.018,2.102,1.589,4.322,1.74,6.653c0.022,0.34,0.034,0.678,0.042,1.016
			c0.013-0.668,0.001-1.34-0.042-2.016c-0.151-2.33-0.722-4.55-1.74-6.653c-1.387-2.865-3.457-5.144-5.985-7.044
			C61.051,35.771,58.166,34.729,54.963,34.554z"/>
		<path fill="#FFFFFF" d="M44.626,51.114c0.252,1.202,0.839,2.231,1.871,2.948c1.29,0.898,3.047,0.859,4.396-0.075
			c1.25-0.865,1.862-2.212,1.667-3.633c-0.141,1.036-0.717,1.975-1.667,2.633c-1.349,0.934-3.106,0.972-4.396,0.075
			c-1.032-0.718-1.619-1.747-1.871-2.948c-0.105-0.501-0.165-0.995-0.192-1.482C44.38,49.437,44.449,50.266,44.626,51.114z"/>
		<path fill="#FFFFFF" d="M30.501,34.647c2.692-3.212,6.05-5.527,9.967-7.021c1.35-0.515,2.827-0.036,3.568,1.143
			c0.215,0.343,0.346,0.714,0.412,1.091c0.122-0.701-0.006-1.445-0.412-2.091c-0.741-1.179-2.218-1.658-3.568-1.143
			c-3.917,1.494-7.275,3.809-9.967,7.021c-4.058,4.843-6.019,10.302-5.889,16.306C24.71,44.342,26.669,39.219,30.501,34.647z"/>
		<path fill="#FFFFFF" d="M34.745,62.644c2.433,3.071,5.576,5.134,9.379,6.147c2.459,0.655,4.943,0.697,7.447,0.31
			c2.584-0.4,4.997-1.249,7.161-2.731c2.978-2.039,5.099-4.758,6.16-8.216c0.493-1.608,0.72-3.224,0.657-4.836
			c-0.047,1.28-0.265,2.56-0.657,3.836c-1.061,3.458-3.182,6.177-6.16,8.216c-2.164,1.482-4.577,2.331-7.161,2.731
			c-2.505,0.387-4.989,0.344-7.447-0.31c-3.804-1.013-6.947-3.076-9.379-6.147c-2.729-3.445-4.197-7.218-4.304-11.265
			C30.313,54.807,31.792,58.917,34.745,62.644z"/>
		<path fill="#FFFFFF" d="M50.002,25.556c1.393-1.468,3.084-2.4,5.108-2.678c0.223-0.031,0.445-0.065,0.668-0.097
			c0.304,0,0.607,0,0.911,0c0.53,0.086,1.065,0.147,1.59,0.263c1.841,0.406,3.49,1.221,4.945,2.415
			c0.607,0.499,0.984,1.095,1.108,1.774c0.173-1.104-0.218-2.043-1.108-2.774c-1.455-1.195-3.104-2.01-4.945-2.415
			c-0.524-0.115-1.06-0.176-1.59-0.263c-0.304,0-0.607,0-0.911,0c-0.222,0.032-0.445,0.066-0.668,0.097
			c-2.024,0.278-3.715,1.21-5.108,2.678c-1.577,1.663-2.33,3.629-2.199,5.869C47.92,28.597,48.663,26.967,50.002,25.556z"/>
	</g>
</g>
</svg>
